<svg xmlns="http://www.w3.org/2000/svg" xml:space="preserve" width="433.469" height="438.71" viewBox="0 0 114.689 116.075"><g transform="translate(-57.233 -92.457)"><circle cx="125.345" cy="167.251" r="36.782" style="opacity:1;fill:none;fill-opacity:.986275;stroke:#2d2d2d;stroke-width:3.5;stroke-linejoin:miter;stroke-dasharray:none;stroke-opacity:.999943;paint-order:normal"/><path d="M158.126 167.25a32.8 32.8 0 0 1-4.39 16.391l6.927 4a40.8 40.8 0 0 0 5.463-20.39z" style="baseline-shift:baseline;display:inline;overflow:visible;opacity:1;vector-effect:none;fill:#9d78ce;stroke:#2d2d2d;stroke-opacity:1;stop-color:#000;stop-opacity:1;fill-opacity:1"/><path d="m102.165 190.43-5.658 5.657a40.8 40.8 0 0 0 35.92 11.326l-1.389-7.879a32.77 32.77 0 0 1-28.873-9.103z" style="baseline-shift:baseline;display:inline;overflow:visible;opacity:1;vector-effect:none;fill:#cb9d58;stroke:#2d2d2d;stroke-opacity:1;stop-color:#000;stop-opacity:1;fill-opacity:1"/><path d="m99.18 133.952-6.236 10.8h-12.47l-6.235-10.8 6.235-10.8h12.47z" style="fill:#cb9d58;fill-opacity:1;stroke:#2d2d2d;stroke-width:1.04347;stroke-linejoin:miter;stroke-dasharray:none;stroke-opacity:.999943;paint-order:normal" transform="translate(4.591 5.984)scale(.95834)"/><path d="m99.18 133.952-6.236 10.8h-12.47l-6.235-10.8 6.235-10.8h12.47z" style="fill:#cb9d58;fill-opacity:1;stroke:#2d2d2d;stroke-width:1.04347;stroke-linejoin:miter;stroke-dasharray:none;stroke-opacity:.999943;paint-order:normal" transform="translate(22.518 -4.365)scale(.95834)"/><path d="m99.18 133.952-6.236 10.8h-12.47l-6.235-10.8 6.235-10.8h12.47z" style="fill:#9d78ce;fill-opacity:1;stroke:#2d2d2d;stroke-width:1.04347;stroke-linejoin:miter;stroke-dasharray:none;stroke-opacity:.999943;paint-order:normal" transform="translate(22.518 16.334)scale(.95834)"/><path d="m99.18 133.952-6.236 10.8h-12.47l-6.235-10.8 6.235-10.8h12.47z" style="fill:#cbc1ec;fill-opacity:1;stroke:#2d2d2d;stroke-width:1.04347;stroke-linejoin:miter;stroke-dasharray:none;stroke-opacity:.999943;paint-order:normal" transform="translate(4.591 26.684)scale(.95834)"/><path d="m99.18 133.952-6.236 10.8h-12.47l-6.235-10.8 6.235-10.8h12.47z" style="fill:#9d78ce;fill-opacity:1;stroke:#2d2d2d;stroke-width:1.04347;stroke-linejoin:miter;stroke-dasharray:none;stroke-opacity:.999943;paint-order:normal" transform="translate(-13.335 16.334)scale(.95834)"/><path d="m99.18 133.952-6.236 10.8h-12.47l-6.235-10.8 6.235-10.8h12.47z" style="fill:#97779e;fill-opacity:1;stroke:#2d2d2d;stroke-width:1.04347;stroke-linejoin:miter;stroke-dasharray:none;stroke-opacity:.999943;paint-order:normal" transform="translate(-13.335 37.034)scale(.95834)"/><path d="m99.18 133.952-6.236 10.8h-12.47l-6.235-10.8 6.235-10.8h12.47z" style="fill:#9d78ce;fill-opacity:1;stroke:#2d2d2d;stroke-width:1.04347;stroke-linejoin:miter;stroke-dasharray:none;stroke-opacity:.999943;paint-order:normal" transform="translate(4.591 47.384)scale(.95834)"/><path d="m99.18 133.952-6.236 10.8h-12.47l-6.235-10.8 6.235-10.8h12.47z" style="fill:#cbc1ec;fill-opacity:1;stroke:#2d2d2d;stroke-width:1.04347;stroke-linejoin:miter;stroke-dasharray:none;stroke-opacity:.999943;paint-order:normal" transform="translate(22.518 37.034)scale(.95834)"/><path d="m99.18 133.952-6.236 10.8h-12.47l-6.235-10.8 6.235-10.8h12.47z" style="fill:#cbc1ec;fill-opacity:1;stroke:#2d2d2d;stroke-width:1.04347;stroke-linejoin:miter;stroke-dasharray:none;stroke-opacity:.999943;paint-order:normal" transform="translate(40.444 26.684)scale(.95834)"/><path d="m99.18 133.952-6.236 10.8h-12.47l-6.235-10.8 6.235-10.8h12.47z" style="fill:#97779e;fill-opacity:1;stroke:#2d2d2d;stroke-width:1.04347;stroke-linejoin:miter;stroke-dasharray:none;stroke-opacity:.999943;paint-order:normal" transform="translate(40.444 5.984)scale(.95834)"/><path d="m99.18 133.952-6.236 10.8h-12.47l-6.235-10.8 6.235-10.8h12.47z" style="fill:#cbc1ec;fill-opacity:1;stroke:#2d2d2d;stroke-width:1.04347;stroke-linejoin:miter;stroke-dasharray:none;stroke-opacity:.999943;paint-order:normal" transform="translate(40.444 -14.715)scale(.95834)"/><path d="m99.18 133.952-6.236 10.8h-12.47l-6.235-10.8 6.235-10.8h12.47z" style="fill:#97779e;fill-opacity:1;stroke:#2d2d2d;stroke-width:1.04347;stroke-linejoin:miter;stroke-dasharray:none;stroke-opacity:.999943;paint-order:normal" transform="translate(22.518 -25.065)scale(.95834)"/><path d="m99.18 133.952-6.236 10.8h-12.47l-6.235-10.8 6.235-10.8h12.47z" style="fill:#9d78ce;fill-opacity:1;stroke:#2d2d2d;stroke-width:1.04347;stroke-linejoin:miter;stroke-dasharray:none;stroke-opacity:.999943;paint-order:normal" transform="translate(58.37 -25.065)scale(.95834)"/><path d="m99.18 133.952-6.236 10.8h-12.47l-6.235-10.8 6.235-10.8h12.47z" style="fill:#cbc1ec;fill-opacity:1;stroke:#2d2d2d;stroke-width:1.04347;stroke-linejoin:miter;stroke-dasharray:none;stroke-opacity:.999943;paint-order:normal" transform="translate(58.37 -4.365)scale(.95834)"/><path d="m99.18 133.952-6.236 10.8h-12.47l-6.235-10.8 6.235-10.8h12.47z" style="fill:#cb9d58;fill-opacity:1;stroke:#2d2d2d;stroke-width:1.04347;stroke-linejoin:miter;stroke-dasharray:none;stroke-opacity:.999943;paint-order:normal" transform="translate(58.37 16.334)scale(.95834)"/><path d="m99.18 133.952-6.236 10.8h-12.47l-6.235-10.8 6.235-10.8h12.47z" style="fill:#cb9d58;fill-opacity:1;stroke:#2d2d2d;stroke-width:1.04347;stroke-linejoin:miter;stroke-dasharray:none;stroke-opacity:.999943;paint-order:normal" transform="translate(40.444 47.384)scale(.95834)"/><path d="m99.18 133.952-6.236 10.8h-12.47l-6.235-10.8 6.235-10.8h12.47z" style="fill:#cbc1ec;fill-opacity:1;stroke:#2d2d2d;stroke-width:1.04347;stroke-linejoin:miter;stroke-dasharray:none;stroke-opacity:.999943;paint-order:normal" transform="translate(58.37 37.034)scale(.95834)"/><path d="m99.18 133.952-6.236 10.8h-12.47l-6.235-10.8 6.235-10.8h12.47z" style="fill:#9d78ce;fill-opacity:1;stroke:#2d2d2d;stroke-width:1.04347;stroke-linejoin:miter;stroke-dasharray:none;stroke-opacity:.999943;paint-order:normal" transform="translate(76.297 5.984)scale(.95834)"/></g></svg>