<?xml version="1.0" encoding="UTF-8" standalone="no"?>
<!-- Created with Inkscape (http://www.inkscape.org/) -->

<svg
   width="200mm"
   height="200mm"
   viewBox="0 0 200 200"
   version="1.1"
   id="svg1"
   xml:space="preserve"
   inkscape:version="1.4.3 (0d15f75, 2025-12-25)"
   sodipodi:docname="logo.svg"
   xmlns:inkscape="http://www.inkscape.org/namespaces/inkscape"
   xmlns:sodipodi="http://sodipodi.sourceforge.net/DTD/sodipodi-0.dtd"
   xmlns="http://www.w3.org/2000/svg"
   xmlns:svg="http://www.w3.org/2000/svg"><sodipodi:namedview
     id="namedview1"
     pagecolor="#505050"
     bordercolor="#eeeeee"
     borderopacity="1"
     inkscape:showpageshadow="0"
     inkscape:pageopacity="0"
     inkscape:pagecheckerboard="0"
     inkscape:deskcolor="#d1d1d1"
     inkscape:document-units="mm"
     inkscape:current-layer="layer1" /><defs
     id="defs1" /><g
     inkscape:label="Layer 1"
     inkscape:groupmode="layer"
     id="layer1"
     style="display:inline"><path
       id="path2"
       style="display:inline;fill:#000a00;fill-opacity:0.986275;stroke:#000000;stroke-width:1.5;stroke-linejoin:round;stroke-dasharray:none;stroke-opacity:0.996078;paint-order:stroke markers fill"
       d="M 95.092915,8.3760475 C 125.40475,23.3752 121.37574,59.357745 106.64926,59.627696 91.922777,59.897646 93.145792,34.91452 105.3378,32.635432 101.92802,23.634441 57.687801,12.155491 25.280503,24.050286 83.256599,27.956746 86.35547,51.676702 82.995719,62.590789 79.635968,73.504876 57.058063,65.777479 67.021852,52.105947 51.677523,48.040229 32.505878,42.896 8.9928681,58.901887 29.41593,58.570733 60.404225,59.192685 59.095659,74.779714 57.787094,90.366743 39.601547,88.816997 44.288927,74.821202 34.225978,73.779313 18.708047,74.110112 3.519243,93.448719 c 28.393618,-7.759285 28.537791,-5.131455 35.410271,0.08586 6.872479,5.217319 -2.868985,26.820371 -13.003345,10.802801 -5.363352,4.8376 -15.893126,13.15375 -19.5943889,35.85646 23.3490429,-31.50453 33.7645809,-21.05332 34.5748699,-12.92711 0.810289,8.12621 -11.771465,16.47858 -14.949475,8.8992 -6.438525,12.1778 -2.63417,37.20778 3.201355,43.13329 -4.334225,-28.99907 13.414358,-36.7163 16.278181,-29.97882 12.377249,28.51286 36.580811,41.11128 61.911979,42.25923 25.33116,1.14795 57.5218,-17.71275 65.26906,-60.92724 1.39236,-8.40572 14.03946,-7.41558 11.18048,4.20562 8.46506,-6.11333 15.06175,-18.02623 11.87053,-44.34883 -5.20771,24.3777 -13.42721,30.49566 -19.81823,22.29105 -6.39102,-8.20461 -6.81797,-20.996346 8.38279,-16.082625 2.9471,-7.633424 2.30154,-24.786785 -6.56034,-39.832624 0,0 4.41698,25.559898 -10.67738,32.372701 -15.45446,6.975335 -20.57227,-16.023098 -0.73639,-11.207585 4.23391,-8.689386 5.25355,-31.207126 -17.17673,-52.723397 9.69873,17.125674 7.31963,47.201372 -7.91011,42.295093 -15.22974,-4.906279 -14.76521,-22.16109 5.04262,-22.869842 C 141.68161,26.770052 114.54552,8.0237375 95.092915,8.3760475 Z M 106.82821,83.554157 c 23.26547,-1.58e-4 42.12598,18.860123 42.12611,42.125593 -1.3e-4,23.26547 -18.86064,42.12575 -42.12611,42.12559 -23.265273,-1.3e-4 -42.125467,-18.86032 -42.125596,-42.12559 1.27e-4,-23.26527 18.860322,-42.125464 42.125596,-42.125593 z"
       sodipodi:nodetypes="czcczcczcczcczccczccczccscczccccscc"
       inkscape:label="spikes" /><path
       id="path1-8"
       style="display:inline;fill:none;stroke:#ffffff;stroke-width:5;stroke-linejoin:round;stroke-dasharray:none;paint-order:stroke markers fill"
       d="m 160.46766,125.82066 a 53.498503,53.498503 0 0 1 -53.4985,53.4985 53.498503,53.498503 0 0 1 -53.498511,-53.4985 53.498503,53.498503 0 0 1 53.498511,-53.498503 53.498503,53.498503 0 0 1 53.4985,53.498503 z"
       inkscape:label="backbone" /><path
       style="display:inline;fill:none;stroke:#51baea;stroke-width:15;stroke-linejoin:round;stroke-dasharray:none;stroke-opacity:1;paint-order:stroke markers fill"
       id="path1-8-6"
       sodipodi:type="arc"
       sodipodi:cx="106.96915"
       sodipodi:cy="125.82066"
       sodipodi:rx="53.499001"
       sodipodi:ry="53.498505"
       sodipodi:start="3.6651914"
       sodipodi:end="5.4977871"
       sodipodi:arc-type="arc"
       d="M 60.637652,99.071412 A 53.499001,53.498505 0 0 1 99.986124,72.779846 53.499001,53.498505 0 0 1 144.79865,87.991506"
       sodipodi:open="true"
       inkscape:label="feature_cyan" /><path
       style="display:inline;fill:none;stroke:#e2da1c;stroke-width:15;stroke-linejoin:round;stroke-dasharray:none;stroke-opacity:1;paint-order:stroke markers fill"
       id="path1-8-97"
       sodipodi:type="arc"
       sodipodi:cx="106.96915"
       sodipodi:cy="125.82066"
       sodipodi:rx="53.498608"
       sodipodi:ry="53.498505"
       sodipodi:start="0.78539816"
       sodipodi:end="3.1415927"
       sodipodi:arc-type="arc"
       d="M 144.79838,163.64982 A 53.498608,53.498505 0 0 1 86.496115,175.24684 53.498608,53.498505 0 0 1 53.470539,125.82066"
       sodipodi:open="true"
       inkscape:label="feature_yellow" /><path
       style="display:inline;fill:none;stroke:#ad68f7;stroke-width:15;stroke-linejoin:round;stroke-dasharray:none;stroke-opacity:1;paint-order:stroke markers fill"
       id="path1-8-9"
       sodipodi:type="arc"
       sodipodi:cx="106.96915"
       sodipodi:cy="125.82066"
       sodipodi:rx="53.499001"
       sodipodi:ry="53.498505"
       sodipodi:start="6.0213859"
       sodipodi:end="0.26179939"
       sodipodi:arc-type="arc"
       d="m 158.64521,111.97423 a 53.499001,53.498505 0 0 1 0,27.69287"
       sodipodi:open="true"
       inkscape:label="feature_violet" /></g></svg>
